<svg xmlns="http://www.w3.org/2000/svg" xmlns:xlink="http://www.w3.org/1999/xlink" width="1080" zoomAndPan="magnify" viewBox="0 0 810 809.999993" height="1080" preserveAspectRatio="xMidYMid meet" version="1.0"><defs><clipPath id="95d2eaa5ec"><path d="M 41.59375 41.59375 L 768.34375 41.59375 L 768.34375 768 L 41.59375 768 Z M 41.59375 41.59375 " clip-rule="nonzero"/></clipPath></defs><g clip-path="url(#95d2eaa5ec)"><path fill="#e26ff4" d="M 93.40625 43.175781 C 67.582031 46.914062 46.484375 68.855469 43.050781 95.535156 C 41.253906 109.5 41.207031 579.480469 43 593.277344 C 45.679688 613.921875 57.925781 630.953125 76.785156 640.277344 L 87.582031 645.613281 L 430.550781 646.378906 L 430.550781 670.894531 C 430.550781 721.761719 449.964844 751.5 491.589844 764.394531 L 502.238281 767.691406 L 696.714844 767.691406 L 708.183594 763.804688 C 734.996094 754.710938 755.089844 734.527344 763.664062 708.070312 C 768.777344 692.300781 769.683594 632.808594 769.371094 333.3125 L 769.125 100.503906 L 768.402344 301.371094 C 768.003906 411.847656 767.519531 500.574219 767.332031 498.542969 C 766.28125 487.402344 754.917969 478.816406 741.222656 478.816406 L 731.496094 478.816406 L 731.496094 443.511719 C 731.496094 386.757812 725.039062 363.324219 701.328125 334.003906 L 694.585938 325.664062 L 694.585938 209.136719 C 694.585938 95.105469 694.523438 92.421875 691.652344 83.898438 C 684.121094 61.546875 665.21875 46.074219 641.714844 43.019531 C 628.636719 41.320312 105.183594 41.46875 93.40625 43.175781 M 88.746094 67.511719 C 71.722656 72.964844 65.726562 85.625 65.726562 116.105469 L 65.726562 139.542969 L 671.875 139.542969 L 671.84375 116.476562 C 671.800781 85.699219 668.039062 77.027344 651.289062 69.109375 L 644.191406 65.753906 L 368.800781 65.886719 C 180.28125 65.976562 91.9375 66.488281 88.746094 67.511719 M 106.929688 94.082031 C 95.101562 105.910156 114.539062 120.492188 131.027344 112.15625 C 138.738281 108.253906 139.53125 96.492188 132.34375 92.644531 C 127.390625 89.992188 110.035156 90.976562 106.929688 94.082031 M 167.160156 94.761719 C 155.636719 106.285156 175.839844 120.253906 191.964844 111.914062 C 198.703125 108.429688 199.96875 99.539062 194.460938 94.363281 C 189.378906 89.59375 172.078125 89.847656 167.160156 94.761719 M 227.800781 94.5625 C 221.738281 101.019531 225.070312 111.183594 233.984375 113.417969 C 250.882812 117.660156 265.453125 104.914062 255.300781 94.761719 C 250.238281 89.699219 232.492188 89.570312 227.800781 94.5625 M 288.632812 94.082031 C 282.417969 100.292969 284.257812 109.574219 292.308594 112.636719 C 298.679688 115.054688 622.9375 114.410156 627.660156 111.96875 C 635.128906 108.109375 636.171875 101.050781 630.25 94.472656 L 627.371094 91.277344 L 459.402344 91.277344 C 294.046875 91.277344 291.390625 91.324219 288.632812 94.082031 M 42.289062 344.667969 C 42.289062 478.175781 42.453125 532.582031 42.660156 465.570312 C 42.863281 398.5625 42.863281 289.328125 42.660156 222.828125 C 42.453125 156.332031 42.289062 211.160156 42.289062 344.667969 M 65.726562 379.285156 L 65.726562 596.3125 L 69.691406 603.902344 C 74.121094 612.382812 82.867188 619.875 90.957031 622.125 C 94.464844 623.097656 152.632812 623.597656 263.398438 623.601562 L 430.550781 623.609375 L 430.550781 494.851562 L 433.777344 490.0625 C 439.386719 481.738281 445.246094 478.816406 456.3125 478.816406 L 466.039062 478.816406 L 466.039062 444.847656 C 466.039062 407.445312 467.324219 394.46875 472.710938 377.375 C 497.511719 298.679688 590.289062 261.015625 661.457031 300.746094 C 666.269531 303.433594 670.582031 305.628906 671.039062 305.628906 C 671.496094 305.628906 671.875 273.371094 671.875 233.941406 L 671.875 162.253906 L 65.726562 162.253906 Z M 127.945312 214.816406 C 125.082031 216.332031 121.246094 219.65625 119.429688 222.207031 L 116.121094 226.84375 L 115.71875 282.992188 L 115.320312 339.144531 L 118.59375 344 C 126.414062 355.609375 124.660156 355.3125 185.933594 355.3125 C 246.601562 355.3125 246.902344 355.273438 253.984375 345.996094 L 258.074219 340.640625 L 258.964844 291.835938 L 254.507812 288.085938 C 248.769531 283.257812 245.355469 283.351562 240.222656 288.484375 L 236.074219 292.636719 L 236.074219 332.601562 L 138.125 332.601562 L 138.125 234.652344 L 164.449219 234.652344 C 194.121094 234.652344 197.746094 233.417969 197.746094 223.296875 C 197.746094 211.921875 145.453125 205.570312 127.945312 214.816406 M 242.460938 213.582031 C 240.226562 214.722656 212.070312 247.675781 189.609375 275.429688 L 186.445312 279.34375 L 177.542969 270.632812 C 165.167969 258.519531 158.09375 257.511719 153.105469 267.152344 C 150 273.15625 150.945312 274.75 167.746094 291.789062 C 182.59375 306.847656 185.277344 308.476562 191.390625 306.128906 C 196.625 304.121094 258.785156 227.542969 258.785156 223.101562 C 258.785156 215.148438 249.734375 209.867188 242.460938 213.582031 M 306.339844 224.277344 C 297.261719 226.582031 294.1875 237.085938 300.777344 243.277344 L 304.441406 246.71875 L 409.503906 246.71875 L 412.929688 242.734375 C 417.277344 237.683594 417.277344 233.042969 412.929688 227.988281 L 409.503906 224.007812 L 359.34375 223.78125 C 331.753906 223.660156 307.902344 223.882812 306.339844 224.277344 M 303.5 285.976562 C 296.253906 289.941406 294.941406 297.90625 300.597656 303.566406 L 304.082031 307.050781 L 470.046875 307.050781 L 473.816406 302.566406 C 478.289062 297.253906 477.804688 292.453125 472.296875 287.53125 L 468.71875 284.335938 L 387.53125 284.378906 C 331.511719 284.410156 305.460938 284.90625 303.5 285.976562 M 586.699219 307.953125 C 520.136719 317.671875 490.4375 357.464844 489.113281 438.710938 L 488.460938 478.816406 L 708.78125 478.816406 L 708.730469 443.679688 C 708.601562 351.511719 659.839844 297.277344 586.699219 307.953125 M 128.757812 420.480469 C 125.554688 421.933594 121.402344 425.273438 119.527344 427.898438 L 116.121094 432.679688 L 115.71875 488.828125 L 115.320312 544.976562 L 118.59375 549.835938 C 126.425781 561.457031 124.5625 561.148438 186.667969 561.148438 C 260.148438 561.148438 257.777344 562.421875 258.523438 522.566406 L 258.972656 498.65625 L 254.730469 494.414062 C 249.390625 489.074219 245.492188 489.046875 240.222656 494.320312 L 236.074219 498.46875 L 236.074219 538.4375 L 138.125 538.4375 L 138.125 440.488281 L 164.449219 440.488281 C 196.949219 440.488281 207.003906 434.003906 194.257812 421.257812 C 189.484375 416.484375 138.878906 415.878906 128.753906 420.480469 M 242.007812 420.027344 C 240.238281 421.265625 227.542969 435.796875 213.792969 452.320312 C 200.042969 468.84375 188.265625 482.957031 187.621094 483.683594 C 186.941406 484.449219 182.707031 481.410156 177.523438 476.429688 C 164.875 464.285156 157.355469 463.328125 153.152344 473.328125 C 149.585938 481.804688 177.730469 513.609375 187.9375 512.636719 C 194.226562 512.035156 258.820312 436.078125 258.738281 429.375 C 258.632812 420.578125 248.949219 415.164062 242.007812 420.027344 M 300.199219 433.835938 C 295.941406 438.367188 296.1875 444.800781 300.777344 449.113281 L 304.4375 452.554688 L 409.503906 452.554688 L 412.929688 448.570312 C 417.304688 443.484375 417.285156 438.449219 412.871094 434.035156 L 409.386719 430.550781 L 303.285156 430.550781 Z M 303.5 491.8125 C 296.253906 495.773438 294.941406 503.742188 300.597656 509.398438 L 304.082031 512.882812 L 397.40625 512.882812 L 400.492188 509.597656 C 405.722656 504.035156 404.421875 495.671875 397.796875 492.25 C 392.726562 489.625 308.214844 489.230469 303.5 491.8125 M 453.261719 514.304688 L 453.261719 527.078125 L 494.175781 527.078125 L 497.949219 531.5625 C 507.835938 543.3125 498.992188 549.792969 473.058594 549.792969 L 453.261719 549.792969 L 453.261719 575.34375 L 493.230469 575.34375 L 497.378906 579.492188 C 499.660156 581.777344 501.527344 585.019531 501.527344 586.699219 C 501.527344 588.382812 499.660156 591.625 497.378906 593.90625 L 493.230469 598.058594 L 453.261719 598.058594 L 453.261719 623.609375 L 473.058594 623.609375 C 498.992188 623.609375 507.835938 630.085938 497.949219 641.839844 L 494.175781 646.320312 L 453.261719 646.320312 L 453.261719 671.875 L 472.070312 671.894531 C 495.625 671.921875 503.992188 676.070312 500.796875 686.140625 C 498.433594 693.585938 495.289062 694.585938 474.289062 694.585938 L 454.683594 694.585938 L 454.683594 697.945312 C 454.683594 710.234375 471.914062 731.214844 488.433594 739.039062 L 497.980469 743.5625 L 595.789062 743.953125 C 682.109375 744.300781 694.519531 744.078125 701.429688 742.070312 C 720.925781 736.402344 737.078125 719.855469 742.574219 699.910156 L 744.042969 694.585938 L 723.839844 694.585938 C 702.1875 694.585938 699.113281 693.628906 696.738281 686.140625 C 693.542969 676.070312 701.90625 671.921875 725.460938 671.894531 L 744.269531 671.875 L 744.269531 646.320312 L 703.355469 646.320312 L 699.582031 641.839844 C 689.695312 630.085938 698.542969 623.609375 724.476562 623.609375 L 744.269531 623.609375 L 744.269531 598.058594 L 724.476562 598.058594 C 701.597656 598.058594 696.953125 596.140625 696.953125 586.699219 C 696.953125 577.261719 701.597656 575.34375 724.476562 575.34375 L 744.269531 575.34375 L 744.269531 549.792969 L 724.476562 549.792969 C 698.542969 549.792969 689.695312 543.3125 699.582031 531.5625 L 703.355469 527.078125 L 744.269531 527.078125 L 744.269531 501.527344 L 453.261719 501.527344 Z M 590.492188 564.605469 C 560.957031 572.53125 553.917969 610.875 578.925781 627.632812 L 585.992188 632.371094 L 586.765625 648.042969 C 588.375 680.640625 609.328125 680.386719 610.832031 647.75 L 611.542969 632.371094 L 618.609375 627.636719 C 650.617188 606.179688 627.628906 554.640625 590.492188 564.605469 M 589.785156 589.984375 C 582.296875 597.957031 587.933594 611.117188 598.835938 611.117188 C 609.722656 611.117188 615.347656 598.078125 607.890625 590.136719 C 603.445312 585.410156 594.160156 585.332031 589.785156 589.984375 " fill-opacity="1" fill-rule="evenodd"/></g></svg>