<svg xmlns="http://www.w3.org/2000/svg" xmlns:xlink="http://www.w3.org/1999/xlink" width="1080" zoomAndPan="magnify" viewBox="0 0 810 809.999993" height="1080" preserveAspectRatio="xMidYMid meet" version="1.0"><defs><clipPath id="8f0e9a4f77"><path d="M 35.292969 37 L 772 37 L 772 774.792969 L 35.292969 774.792969 Z M 35.292969 37 " clip-rule="nonzero"/></clipPath></defs><g clip-path="url(#8f0e9a4f77)"><path fill="#e26ff4" d="M 71.28125 38.179688 C 57.082031 40.613281 46.125 48.730469 39.707031 61.574219 L 35.292969 70.410156 L 35.292969 563.390625 L 39.707031 572.226562 C 44.761719 582.339844 50.003906 587.289062 61.285156 592.605469 L 69.230469 596.34375 L 267.027344 597.066406 L 464.820312 597.789062 L 472.445312 624.507812 C 497.660156 712.875 496.957031 711.15625 507.898438 711.15625 C 513.515625 711.15625 514.671875 710.28125 532.75 692.382812 C 543.175781 682.054688 552.316406 673.605469 553.058594 673.605469 C 553.804688 673.605469 577.191406 696.351562 605.03125 724.152344 C 654.46875 773.519531 655.785156 774.699219 661.355469 774.699219 C 666.9375 774.699219 668.238281 773.523438 719.4375 722.324219 C 770.804688 670.957031 771.808594 669.84375 771.808594 664.191406 C 771.808594 658.542969 770.808594 657.425781 721.265625 607.898438 C 693.464844 580.105469 670.71875 556.746094 670.71875 555.984375 C 670.71875 555.21875 679.167969 546.066406 689.492188 535.636719 C 707.261719 517.691406 708.265625 516.367188 708.265625 510.910156 C 708.265625 506.6875 707.335938 504.273438 704.792969 501.878906 C 700.5625 497.90625 698.65625 497.316406 583.027344 464.117188 L 490.277344 437.488281 L 489.878906 340.730469 C 489.445312 236.128906 489.746094 240.039062 481.746094 235.753906 C 478.882812 234.222656 443.609375 233.863281 296.683594 233.863281 C 100.566406 233.863281 110.125 233.484375 105.851562 241.460938 C 103.003906 246.78125 102.9375 467.765625 105.78125 473.082031 C 110.140625 481.226562 100.78125 480.753906 272.75 481.535156 L 431.503906 482.257812 L 442.746094 521.25 C 448.929688 542.695312 454.390625 562.027344 454.878906 564.210938 L 455.769531 568.183594 L 70.34375 568.183594 L 62.730469 560.570312 L 62.730469 192.703125 L 631.726562 192.703125 L 631.726562 284.949219 C 631.726562 335.683594 632.132812 379.214844 632.625 381.6875 C 634.84375 392.78125 647.671875 397.320312 655.289062 389.703125 C 657.585938 387.40625 659.363281 383.648438 659.894531 379.957031 C 660.371094 376.652344 660.566406 306.019531 660.324219 223 L 659.886719 72.054688 L 655.148438 62.425781 C 649.800781 51.5625 644.679688 46.617188 633.171875 41.199219 L 625.226562 37.457031 L 351.5625 37.253906 C 201.042969 37.140625 74.917969 37.558594 71.28125 38.179688 M 66.539062 69.425781 L 62.730469 73.234375 L 62.730469 163.820312 L 631.726562 163.820312 L 631.726562 73.234375 L 627.921875 69.425781 L 624.113281 65.617188 L 70.34375 65.617188 Z M 364.558594 102.164062 C 360.984375 103.382812 358.726562 105.476562 356.859375 109.304688 C 354.292969 114.554688 354.292969 114.886719 356.859375 120.136719 C 358.726562 123.964844 360.984375 126.058594 364.558594 127.277344 C 368.269531 128.539062 395.746094 129.019531 467.996094 129.082031 C 522.105469 129.125 568.402344 128.757812 570.871094 128.261719 C 586.34375 125.167969 586.34375 104.273438 570.871094 101.175781 C 568.402344 100.683594 522.105469 100.316406 467.996094 100.359375 C 395.746094 100.421875 368.269531 100.898438 364.558594 102.164062 M 114.609375 105.945312 C 111.726562 108.824219 110.386719 111.613281 110.386719 114.71875 C 110.386719 121.214844 117.15625 127.71875 123.914062 127.71875 C 131.675781 127.71875 137.039062 122.40625 137.039062 114.71875 C 137.039062 102.585938 123.332031 97.222656 114.609375 105.945312 M 180.625 105.53125 C 177.875 108.28125 176.820312 110.828125 176.820312 114.71875 C 176.820312 126.425781 190.730469 132.1875 199.007812 123.910156 C 207.28125 115.632812 201.519531 101.722656 189.816406 101.722656 C 185.925781 101.722656 183.378906 102.777344 180.625 105.53125 M 246.027344 105.945312 C 243.144531 108.824219 241.804688 111.613281 241.804688 114.71875 C 241.804688 121.214844 248.574219 127.71875 255.332031 127.71875 C 263.09375 127.71875 268.457031 122.40625 268.457031 114.71875 C 268.457031 102.585938 254.75 97.222656 246.027344 105.945312 M 132.050781 357.335938 L 132.050781 452.652344 L 277.1875 452.652344 C 357.011719 452.652344 422.324219 452.121094 422.324219 451.46875 C 422.324219 450.820312 421.332031 446.941406 420.117188 442.855469 C 417.433594 433.808594 418.410156 429.222656 424.039062 424.488281 C 429.378906 419.992188 430.03125 420.007812 447.234375 425.082031 L 461.316406 429.230469 L 461.316406 262.023438 L 132.050781 262.023438 Z M 323.148438 291.824219 C 321.425781 292.210938 318.335938 294.199219 316.289062 296.246094 L 312.570312 299.964844 L 312.570312 414.5625 L 317.007812 418.804688 C 321.441406 423.042969 321.464844 423.046875 338.308594 422.773438 C 363.035156 422.375 378.855469 415.972656 391.992188 401.046875 C 402.761719 388.8125 409.328125 372.257812 409.328125 357.335938 C 409.328125 330.1875 390.554688 304.433594 364.148438 295.347656 C 356.152344 292.597656 329.84375 290.335938 323.148438 291.824219 M 224.0625 295.253906 C 221.042969 297.628906 217.085938 308.019531 202.207031 352.660156 C 192.214844 382.636719 184.039062 408.671875 184.039062 410.523438 C 184.039062 415.523438 191.519531 422.324219 197.019531 422.324219 C 203.101562 422.324219 206.664062 420.222656 209.332031 415.0625 L 211.550781 410.769531 L 253.285156 410.769531 L 255.503906 415.0625 C 258.171875 420.222656 261.734375 422.324219 267.816406 422.324219 C 273.753906 422.324219 280.800781 415.519531 280.789062 409.800781 C 280.78125 407.554688 272.644531 381.671875 262.707031 352.285156 C 243.1875 294.570312 242.070312 292.351562 232.53125 292.351562 C 229.902344 292.351562 226.09375 293.65625 224.0625 295.253906 M 340.007812 357.335938 L 340.007812 394.886719 L 346.867188 394.855469 C 359.375 394.796875 372.210938 386.21875 378.367188 373.804688 C 382.246094 365.988281 382.246094 348.6875 378.367188 340.871094 C 372.210938 328.457031 359.375 319.878906 346.867188 319.820312 L 340.007812 319.789062 Z M 227.3125 364.070312 C 224.726562 371.882812 222.308594 379.089844 221.941406 380.082031 C 221.449219 381.425781 224.085938 381.886719 232.265625 381.886719 C 238.304688 381.886719 243.25 381.402344 243.25 380.808594 C 243.25 378.777344 234.226562 352.285156 233.121094 351.074219 C 232.515625 350.40625 229.902344 356.257812 227.3125 364.070312 M 636.976562 429.019531 C 634.226562 431.773438 633.171875 434.320312 633.171875 438.210938 C 633.171875 442.101562 634.226562 444.648438 636.976562 447.402344 C 639.730469 450.152344 642.277344 451.207031 646.167969 451.207031 C 650.058594 451.207031 652.605469 450.152344 655.359375 447.402344 C 658.113281 444.648438 659.164062 442.101562 659.164062 438.210938 C 659.164062 434.320312 658.109375 431.773438 655.359375 429.019531 C 652.609375 426.265625 650.058594 425.214844 646.167969 425.214844 C 642.277344 425.214844 639.730469 426.269531 636.976562 429.019531 M 452.652344 456.40625 C 452.652344 457.714844 513.667969 669.90625 514.242188 670.59375 C 514.515625 670.917969 521.84375 664.257812 530.527344 655.789062 C 545.621094 641.070312 546.59375 640.390625 552.511719 640.390625 L 558.703125 640.390625 L 609.320312 690.9375 C 637.164062 718.738281 660.582031 741.484375 661.371094 741.484375 C 663.222656 741.484375 738.59375 666.089844 738.59375 664.238281 C 738.59375 663.464844 715.847656 640.050781 688.046875 612.210938 L 637.503906 561.589844 L 637.503906 555.398438 C 637.503906 549.480469 638.183594 548.511719 652.902344 533.417969 C 661.371094 524.734375 668.03125 517.398438 667.703125 517.121094 C 666.980469 516.507812 455.054688 455.539062 453.644531 455.539062 C 453.097656 455.539062 452.652344 455.929688 452.652344 456.40625 M 116.300781 512.261719 C 113.59375 513.234375 110.0625 515.804688 108.457031 517.972656 C 106.023438 521.253906 105.757812 522.804688 106.875 527.21875 C 107.65625 530.292969 109.9375 533.796875 112.300781 535.550781 C 116.265625 538.496094 117.824219 538.578125 169.824219 538.578125 L 223.269531 538.578125 L 227.484375 533.863281 C 233.003906 527.679688 233.003906 522.039062 227.484375 515.855469 L 223.269531 511.140625 L 172.246094 510.816406 C 134.941406 510.582031 119.894531 510.96875 116.300781 512.261719 M 265.761719 516.304688 C 263.65625 518.808594 262.023438 522.542969 262.023438 524.859375 C 262.023438 531.226562 268.402344 537.855469 274.523438 537.855469 C 281.414062 537.855469 285.007812 535.617188 287.4375 529.796875 C 293.167969 516.082031 275.308594 504.960938 265.761719 516.304688 " fill-opacity="1" fill-rule="evenodd"/></g></svg>