<svg xmlns="http://www.w3.org/2000/svg" xmlns:xlink="http://www.w3.org/1999/xlink" width="1080" zoomAndPan="magnify" viewBox="0 0 810 809.999993" height="1080" preserveAspectRatio="xMidYMid meet" version="1.0"><defs><clipPath id="dfd9997a6d"><path d="M 92 29.539062 L 718 29.539062 L 718 780 L 92 780 Z M 92 29.539062 " clip-rule="nonzero"/></clipPath></defs><g clip-path="url(#dfd9997a6d)"><path fill="#e26ff4" d="M 381.4375 31.183594 C 303.484375 38.089844 236.097656 99.875 222.382812 177.011719 C 219.675781 192.242188 219.246094 225.097656 221.566406 239.480469 C 233.195312 311.53125 289.390625 370.835938 360.996094 386.621094 C 377.628906 390.289062 411.4375 391.121094 428.6875 388.289062 C 466.484375 382.089844 498.796875 365.523438 526.101562 338.34375 C 542.261719 322.257812 551.898438 308.984375 561.300781 289.863281 C 574.332031 263.367188 579.535156 240.398438 579.511719 209.460938 C 579.480469 161.492188 562.859375 120.578125 529.273438 85.789062 C 503.890625 59.496094 474.253906 42.34375 441.050781 34.726562 C 432.792969 32.832031 398.964844 29.089844 396.195312 29.761719 C 395.792969 29.859375 389.148438 30.5 381.4375 31.183594 M 375.164062 74.980469 C 348.582031 79.792969 326.46875 91.078125 306.191406 110.1875 C 287.128906 128.15625 274.828125 147.605469 267.6875 171.066406 C 263.988281 183.21875 263.660156 186.308594 263.570312 209.933594 C 263.484375 232.390625 263.886719 237.027344 266.777344 247.011719 C 277.429688 283.804688 304.179688 316.039062 338.261719 333.160156 C 360.261719 344.210938 371.664062 346.78125 399.128906 346.882812 C 417.917969 346.953125 423.929688 346.417969 433.789062 343.808594 C 481.152344 331.265625 519.914062 292.921875 532.804688 245.863281 C 535.492188 236.0625 536.019531 230.269531 536.019531 210.667969 C 536.019531 182.433594 533.578125 171.421875 522.367188 149.066406 C 505.410156 115.25 472.859375 88.023438 437.261719 77.875 C 424.929688 74.355469 388.085938 72.640625 375.164062 74.980469 M 228.035156 395.429688 C 153.421875 408.96875 108.085938 475.84375 94.785156 591.988281 C 91.238281 622.941406 91.507812 667.394531 95.34375 685.121094 C 98.859375 701.355469 108.167969 721.199219 118.191406 733.84375 C 135.664062 755.875 164.113281 771.957031 196 777.828125 C 211.09375 780.605469 597.617188 780.582031 612.523438 777.804688 C 666.585938 767.722656 703.1875 733.722656 713.679688 683.84375 C 722.769531 640.636719 713.121094 552.472656 693.671875 501.058594 C 668.1875 433.675781 623.234375 396.847656 562.65625 393.71875 C 543.046875 392.707031 543.195312 392.652344 513.933594 411.253906 C 483.9375 430.324219 480.925781 431.960938 465.125 437.832031 C 436.054688 448.632812 413.671875 452.050781 389.839844 449.316406 C 357.988281 445.664062 334.449219 436.53125 299.707031 414.34375 C 286.226562 405.738281 272.558594 397.484375 269.332031 396.011719 C 262.273438 392.78125 244.046875 392.523438 228.035156 395.429688 M 236.433594 437.390625 C 223.511719 439.925781 210.972656 445.042969 200.65625 452 C 159.929688 479.445312 135.09375 552.277344 135.160156 644.054688 C 135.183594 675.417969 138.703125 689.21875 150.75 705.179688 C 161.914062 719.96875 178.535156 730.199219 198.199219 734.375 C 212.839844 737.488281 596.195312 737.367188 611.054688 734.246094 C 633.59375 729.515625 654.402344 714.539062 664.054688 696.105469 C 671.8125 681.289062 673.632812 670.609375 673.496094 640.75 C 673.324219 603.863281 669.847656 575.105469 661.628906 542.582031 C 645.085938 477.121094 611.921875 440.914062 564.457031 436.484375 L 555.324219 435.628906 L 533.324219 449.773438 C 498.285156 472.304688 477.457031 481.457031 444.363281 488.859375 C 424.300781 493.34375 386.125 493.671875 366.863281 489.519531 C 333.828125 482.394531 310.710938 472.4375 276.796875 450.730469 C 251.828125 434.746094 251.109375 434.511719 236.433594 437.390625 " fill-opacity="1" fill-rule="evenodd"/></g></svg>