<svg xmlns="http://www.w3.org/2000/svg" xmlns:xlink="http://www.w3.org/1999/xlink" width="1080" zoomAndPan="magnify" viewBox="0 0 810 809.999993" height="1080" preserveAspectRatio="xMidYMid meet" version="1.0"><defs><clipPath id="6057f30e9e"><path d="M 42.140625 72 L 768.140625 72 L 768.140625 738 L 42.140625 738 Z M 42.140625 72 " clip-rule="nonzero"/></clipPath></defs><g clip-path="url(#6057f30e9e)"><path fill="#e26ff4" d="M 351.132812 72.90625 C 346.496094 74.703125 341.046875 79.445312 338.710938 83.710938 C 336.53125 87.699219 336.171875 94.617188 335.542969 144.902344 L 334.835938 201.597656 L 205.144531 202.308594 C 76.179688 203.011719 75.414062 203.035156 68.863281 206.0625 C 60.023438 210.148438 51.175781 219.277344 46.605469 229.027344 L 42.851562 237.035156 L 42.445312 344.695312 C 42.152344 422.363281 42.488281 453.429688 43.640625 456.222656 C 46.734375 463.6875 58.445312 463.9375 61.78125 456.613281 C 62.953125 454.042969 63.402344 423.546875 63.402344 346.746094 C 63.402344 257.992188 63.734375 239.804688 65.402344 236.609375 C 68.085938 231.472656 74.550781 225.507812 79.441406 223.660156 C 82.152344 222.632812 123.871094 222.152344 209.488281 222.152344 L 335.542969 222.152344 L 335.542969 228.941406 C 335.542969 245.398438 342.929688 262.097656 356.121094 275.476562 C 377.785156 297.4375 409.6875 302.191406 438.265625 287.71875 C 447.09375 283.246094 461.214844 269.070312 466.265625 259.605469 C 471.03125 250.671875 474.449219 237.871094 474.449219 228.941406 L 474.449219 222.152344 L 600.503906 222.152344 C 686.121094 222.152344 727.839844 222.632812 730.550781 223.660156 C 735.4375 225.507812 741.902344 231.472656 744.589844 236.609375 C 746.285156 239.859375 746.589844 275.058594 746.589844 469.324219 C 746.589844 628.007812 746.125 699.4375 745.074219 702.203125 C 742.925781 707.875 738.265625 712.535156 731.707031 715.5625 C 726.378906 718.019531 720.421875 718.179688 633.089844 718.207031 L 540.144531 718.238281 L 537.058594 721.519531 C 533.195312 725.632812 533.105469 731.539062 536.851562 735.289062 C 539.6875 738.125 540.925781 738.15625 637.132812 737.769531 L 734.539062 737.375 L 741.253906 734.039062 C 753.957031 727.726562 766.378906 711.394531 766.417969 700.960938 C 766.425781 698.863281 767.039062 696.773438 767.78125 696.316406 C 768.621094 695.792969 769.128906 610.476562 769.136719 468.691406 C 769.140625 324.71875 768.648438 242.210938 767.789062 242.742188 C 767.042969 243.203125 766.425781 241.789062 766.417969 239.597656 C 766.378906 228.796875 753.574219 211.816406 741.128906 206.0625 C 734.578125 203.035156 733.8125 203.011719 604.847656 202.308594 L 475.15625 201.597656 L 474.449219 144.902344 C 473.664062 82.140625 473.753906 82.734375 464.191406 75.917969 L 459.566406 72.617188 L 406.414062 72.347656 C 377.179688 72.199219 352.304688 72.453125 351.132812 72.90625 M 356.917969 93.742188 C 355.691406 95.214844 355.371094 114.292969 355.679688 167.09375 L 356.09375 238.453125 L 359.816406 246.246094 C 365.335938 257.808594 372.59375 265.3125 383.410156 270.636719 C 391.886719 274.808594 394.167969 275.304688 404.996094 275.304688 C 415.824219 275.304688 418.105469 274.808594 426.582031 270.636719 C 437.398438 265.3125 444.65625 257.808594 450.175781 246.246094 L 453.894531 238.453125 L 454.3125 167.09375 C 454.621094 114.292969 454.296875 95.214844 453.074219 93.742188 C 450.625 90.789062 359.367188 90.789062 356.917969 93.742188 M 396.261719 113.269531 C 393.40625 114.03125 388.378906 116.957031 385.085938 119.777344 C 362.863281 138.796875 375.84375 174.410156 404.996094 174.410156 C 434.117188 174.410156 447.128906 138.796875 424.949219 119.8125 C 419.394531 115.058594 409.914062 111.402344 404.011719 111.742188 C 402.605469 111.820312 399.117188 112.507812 396.261719 113.269531 M 397.136719 136.335938 C 395.222656 138.25 393.65625 141.464844 393.65625 143.484375 C 393.65625 148.589844 399.554688 154.117188 404.996094 154.117188 C 410.4375 154.117188 416.335938 148.589844 416.335938 143.484375 C 416.335938 138.382812 410.4375 132.855469 404.996094 132.855469 C 402.234375 132.855469 399.328125 134.140625 397.136719 136.335938 M 42.816406 349.007812 C 42.816406 407.476562 42.988281 431.601562 43.207031 402.621094 C 43.417969 373.636719 43.417969 325.800781 43.207031 296.316406 C 42.992188 266.828125 42.816406 290.539062 42.816406 349.007812 M 107.777344 329.886719 C 105.875 330.65625 104.058594 333.238281 103.105469 336.53125 C 101.996094 340.359375 101.664062 390.234375 101.960938 508.671875 C 102.367188 670.34375 102.464844 675.511719 105.082031 678.402344 L 107.78125 681.386719 L 411.878906 681.386719 L 414.8125 677.652344 C 417.75 673.921875 417.753906 673.75 417.753906 504.667969 L 417.753906 335.414062 L 414.273438 331.9375 L 410.792969 328.457031 L 339.667969 328.457031 L 336.1875 331.9375 C 332.015625 336.105469 331.734375 341.109375 335.414062 345.660156 C 338.082031 348.957031 338.566406 349.015625 368.023438 349.464844 L 397.921875 349.921875 L 397.558594 505.378906 L 397.199219 660.835938 L 372.394531 661.65625 L 372.394531 625.003906 C 372.394531 583.527344 371.625 578.863281 362.851562 567.398438 C 359.324219 562.792969 354.386719 558.710938 348.300781 555.378906 C 339.214844 550.398438 338.820312 550.324219 319.597656 549.789062 C 305.105469 549.386719 300.109375 548.789062 300.109375 547.453125 C 300.109375 546.46875 304.09375 541.582031 308.96875 536.59375 C 324.867188 520.320312 329.886719 505.742188 329.851562 475.921875 C 329.820312 444.761719 325.105469 431.101562 308.769531 414.800781 C 297.148438 403.207031 285.011719 397.078125 269.089844 394.757812 C 248.203125 391.710938 227.078125 398.875 211.21875 414.378906 C 194.492188 430.722656 188.242188 451.339844 189.996094 484.371094 C 191.316406 509.246094 197.613281 524.152344 213.007812 538.824219 C 217.257812 542.875 220.734375 546.890625 220.734375 547.746094 C 220.734375 548.769531 214.109375 549.480469 201.246094 549.835938 C 178.199219 550.472656 171.25 552.8125 160.785156 563.46875 C 148.390625 576.089844 147.804688 578.660156 147.28125 622.921875 L 146.828125 661.542969 L 122.933594 661.542969 L 122.933594 349.800781 L 211.304688 349.402344 C 306.03125 348.980469 303.066406 349.210938 305.742188 341.976562 C 307.296875 337.773438 304.539062 331.289062 300.550781 329.773438 C 296.105469 328.082031 111.984375 328.195312 107.777344 329.886719 M 462.398438 330.148438 C 458.453125 332.390625 457.484375 334.164062 457.460938 339.222656 C 457.449219 341.902344 458.601562 344.660156 460.421875 346.308594 C 463.308594 348.917969 467.371094 349.007812 582.101562 349.007812 C 709.757812 349.007812 704.148438 349.324219 706.863281 341.976562 C 708.421875 337.773438 705.664062 331.289062 701.675781 329.773438 C 696.378906 327.757812 465.976562 328.121094 462.398438 330.148438 M 461.175781 410.769531 C 456.007812 414.832031 456.007812 422.089844 461.175781 426.152344 C 464.882812 429.070312 465.691406 429.089844 581.585938 429.089844 C 666.171875 429.089844 699.242188 428.644531 701.824219 427.46875 C 708.957031 424.21875 708.945312 412.699219 701.804688 409.441406 C 699.25 408.28125 665.777344 407.832031 581.585938 407.832031 C 465.691406 407.832031 464.882812 407.851562 461.175781 410.769531 M 244.609375 416.894531 C 229.484375 422.296875 219.152344 432.417969 213.582031 447.300781 C 210.894531 454.480469 210.632812 457.671875 211.050781 477.992188 C 211.496094 499.46875 211.730469 501.097656 215.480469 508.734375 C 224.414062 526.925781 244.355469 538.195312 264.316406 536.332031 C 282.230469 534.65625 296.785156 524.164062 304.933594 507.046875 C 309.261719 497.957031 309.320312 497.546875 309.269531 475.867188 C 309.21875 456.144531 308.871094 453.027344 305.847656 445.402344 C 301.265625 433.839844 289.582031 422.15625 278.429688 417.984375 C 268.964844 414.441406 252.921875 413.921875 244.609375 416.894531 M 45.90625 491.214844 C 43.765625 493.578125 43.5625 503.113281 43.574219 599.289062 L 43.589844 704.773438 L 46.902344 711.863281 C 51.003906 720.621094 59.875 729.632812 68.738281 734.039062 L 75.449219 737.375 L 288.886719 737.746094 C 501.65625 738.117188 502.332031 738.109375 504.921875 735.25 C 508.59375 731.191406 508.28125 724.085938 504.292969 720.855469 C 501.1875 718.339844 493.054688 718.238281 292.507812 718.207031 C 92.777344 718.179688 83.714844 718.066406 78.285156 715.5625 C 71.726562 712.535156 67.0625 707.875 64.914062 702.203125 C 63.894531 699.511719 63.402344 665.292969 63.402344 597.152344 C 63.402344 497.058594 63.375 496.054688 60.464844 492.355469 C 56.90625 487.828125 49.496094 487.25 45.90625 491.214844 M 459.785156 491.214844 C 457.378906 493.875 456.667969 500.867188 458.523438 503.644531 C 461.648438 508.324219 465.246094 508.464844 581.984375 508.464844 C 653.199219 508.464844 699.605469 507.933594 701.808594 507.097656 C 707.523438 504.925781 708.957031 496.167969 704.429688 491.101562 C 702.347656 488.777344 694.703125 488.621094 582.171875 488.621094 C 467.679688 488.621094 462.023438 488.742188 459.785156 491.214844 M 619.515625 540.242188 C 602.71875 544.316406 584.660156 557.265625 575.316406 571.933594 C 557.730469 599.535156 562.09375 637.175781 585.601562 660.652344 C 630.15625 705.152344 707.105469 673.347656 707.105469 610.4375 C 707.105469 595.691406 705.449219 588.855469 698.796875 576.144531 C 684.226562 548.292969 650.078125 532.828125 619.515625 540.242188 M 240.582031 566.578125 C 240.589844 578.78125 243.230469 584.625 250.839844 589.265625 C 256.316406 592.605469 261.554688 592.839844 268.230469 590.050781 C 275.964844 586.820312 278.835938 580.65625 278.839844 567.289062 L 278.847656 555.949219 L 240.578125 555.949219 Z M 626.171875 559.554688 C 610.621094 562.769531 597.703125 572.867188 589.699219 588.066406 C 586.105469 594.898438 585.714844 597.011719 585.714844 609.808594 C 585.714844 626.910156 588.238281 633.542969 599.140625 645.070312 C 609.652344 656.183594 620.371094 660.746094 636.03125 660.761719 C 646.113281 660.773438 649.402344 660.160156 656.183594 657.003906 C 686.59375 642.867188 696.46875 606.25 677.09375 579.5 C 666.078125 564.296875 644.378906 555.796875 626.171875 559.554688 M 184.808594 571.457031 C 178.5 573.734375 173.261719 578.253906 169.925781 584.296875 C 167.917969 587.941406 167.582031 593.71875 167.582031 624.691406 L 167.582031 660.835938 L 352.550781 661.5625 L 352.542969 627.183594 C 352.539062 608.273438 351.890625 590.472656 351.097656 587.625 C 349.3125 581.199219 340.460938 572.960938 333.164062 570.933594 C 330.183594 570.105469 321.601562 569.425781 314.09375 569.421875 C 299.171875 569.414062 298.789062 569.660156 298.695312 579.335938 C 298.601562 589.476562 287.46875 603.773438 275.394531 609.257812 C 268.765625 612.265625 253.824219 612.683594 246.695312 610.054688 C 233.167969 605.070312 222.667969 591.769531 220.914062 577.40625 L 220.027344 570.121094 L 205.144531 569.804688 C 195.277344 569.597656 188.421875 570.152344 184.808594 571.457031 M 629.355469 602.359375 C 618.929688 612.683594 610.050781 622.511719 609.628906 624.199219 C 608.839844 627.339844 611.132812 633.085938 613.917969 634.945312 C 614.777344 635.519531 617.421875 635.996094 619.796875 636.011719 C 623.476562 636.027344 626.988281 633.132812 643.539062 616.429688 C 655.707031 604.148438 662.960938 595.75 662.960938 593.941406 C 662.960938 588.996094 657.601562 583.585938 652.699219 583.585938 C 648.972656 583.585938 645.46875 586.402344 629.355469 602.359375 " fill-opacity="1" fill-rule="evenodd"/></g></svg>