<svg xmlns="http://www.w3.org/2000/svg" xmlns:xlink="http://www.w3.org/1999/xlink" width="1080" zoomAndPan="magnify" viewBox="0 0 810 809.999993" height="1080" preserveAspectRatio="xMidYMid meet" version="1.0"><defs><clipPath id="bd1d267c29"><path d="M 41 40.222656 L 769.972656 40.222656 L 769.972656 769.972656 L 41 769.972656 Z M 41 40.222656 " clip-rule="nonzero"/></clipPath></defs><g clip-path="url(#bd1d267c29)"><path fill="#e26ff4" d="M 376.5 41.050781 C 286.980469 51.15625 220.457031 80.132812 158.925781 135.832031 C 148.597656 145.175781 123.953125 171.449219 124.753906 172.25 C 125.019531 172.515625 136.40625 169.457031 150.054688 165.457031 C 170.054688 159.59375 181.257812 157.292969 207.714844 153.601562 L 240.554688 149.019531 L 255.449219 140.839844 L 270.347656 132.660156 L 304.542969 142.238281 L 331.3125 140.746094 L 358.078125 139.253906 L 367.078125 125.007812 C 372.03125 117.167969 376.65625 110.851562 377.359375 110.96875 C 399.691406 114.667969 404.472656 114.730469 436.238281 111.710938 L 468.191406 108.675781 L 477.417969 98.566406 C 482.492188 93.007812 492.179688 84.738281 498.949219 80.183594 L 511.25 71.914062 L 529.015625 74.679688 C 545.722656 77.28125 560.992188 77.191406 557.992188 74.511719 C 549.4375 66.863281 490.199219 48.945312 456.296875 43.75 C 442.152344 41.582031 388.023438 39.75 376.5 41.050781 M 436.347656 67.886719 C 424.984375 74.324219 411.972656 81.871094 407.433594 84.65625 L 399.179688 89.722656 L 406.394531 94.351562 L 413.605469 98.980469 L 427.273438 97.957031 C 445.980469 96.550781 446.703125 96.257812 464.578125 82.765625 C 481.71875 69.828125 479.875 62.707031 457.753906 56.398438 C 457.34375 56.28125 447.710938 61.453125 436.347656 67.886719 M 307.257812 83.140625 C 305.765625 84.800781 300.507812 89.046875 295.574219 92.574219 L 286.601562 98.988281 L 298.449219 105.863281 L 310.300781 112.738281 L 333.78125 106.4375 C 346.699219 102.972656 357.808594 100.121094 358.46875 100.105469 C 359.769531 100.066406 351.730469 84.921875 348.734375 81.765625 C 347.214844 80.164062 345.265625 80.378906 336.890625 83.078125 L 326.863281 86.308594 L 318.78125 83.214844 C 309.082031 79.5 310.519531 79.511719 307.257812 83.140625 M 484.792969 121.703125 L 484.792969 129.085938 L 505.179688 149.84375 C 524.390625 169.40625 534.34375 180.804688 533.082031 181.808594 C 532.777344 182.050781 528.914062 184.28125 524.496094 186.769531 L 516.46875 191.285156 L 508.109375 188.683594 C 503.515625 187.253906 495.113281 184.203125 489.441406 181.90625 L 479.128906 177.726562 L 479.113281 168.367188 L 479.09375 159.011719 L 464.613281 153.042969 C 456.652344 149.761719 449.929688 147.28125 449.679688 147.535156 C 449.429688 147.785156 447.203125 156.925781 444.734375 167.84375 C 439.367188 191.566406 441.003906 189.4375 425.472656 192.84375 C 418.523438 194.363281 412.144531 195.851562 411.300781 196.148438 C 410.199219 196.53125 410.199219 200.074219 411.300781 208.582031 L 412.835938 220.472656 L 432.074219 224.253906 C 442.652344 226.332031 451.484375 227.863281 451.699219 227.660156 C 451.914062 227.457031 453.453125 219.347656 455.113281 209.632812 C 456.777344 199.921875 458.527344 191.554688 459 191.042969 C 461.292969 188.542969 491.3125 194.921875 498.726562 199.484375 C 505.574219 203.695312 507.210938 204.089844 517.972656 204.089844 L 529.734375 204.089844 L 537.816406 220.117188 C 545.414062 235.1875 547.195312 237.492188 567.460938 258.570312 L 589.023438 280.988281 L 587.390625 288.847656 C 585.519531 297.867188 587.105469 297.4375 566.140625 294.632812 L 551.308594 292.648438 L 520.546875 308.140625 L 489.78125 323.628906 L 468.25 349.710938 C 446.910156 375.558594 446.699219 375.886719 444.125 386.832031 L 441.527344 397.875 L 433.050781 397.875 C 426.066406 397.875 422.101562 396.757812 410.558594 391.535156 L 396.546875 385.199219 L 382.605469 391.691406 C 374.9375 395.261719 368.53125 398.304688 368.367188 398.449219 C 368.039062 398.734375 371.421875 413.71875 373.867188 422.8125 L 375.398438 428.511719 L 381.292969 421.832031 C 387.125 415.226562 387.304688 415.144531 398.273438 414.152344 L 409.359375 413.148438 L 408.402344 426.75 L 407.449219 440.351562 L 415.839844 442.824219 C 423.042969 444.949219 425.652344 446.773438 434.210938 455.667969 L 444.183594 466.039062 L 458.433594 461.84375 L 472.683594 457.652344 L 490.492188 460.597656 C 500.289062 462.21875 516.464844 465.78125 526.4375 468.519531 C 536.414062 471.257812 548.699219 473.878906 553.742188 474.351562 C 564.914062 475.394531 562.105469 473.289062 581.929688 495.480469 L 598.480469 514.003906 L 628.910156 531.707031 C 645.648438 541.445312 659.570312 549.582031 659.847656 549.785156 C 660.128906 549.992188 651.148438 567.785156 639.902344 589.320312 L 619.449219 628.480469 L 598.332031 638.121094 C 574.316406 649.085938 576.851562 646.203125 566.710938 674.109375 L 559.796875 693.144531 L 528.34375 714.144531 L 496.886719 735.144531 L 493.828125 746.761719 C 490.265625 760.289062 489.257812 759.769531 508.308594 754.25 C 650.859375 712.949219 768.351562 567.230469 768.351562 431.722656 C 768.351562 427.457031 768.898438 425.117188 769.773438 425.660156 C 770.703125 426.234375 771.191406 418.4375 771.179688 403.300781 C 771.164062 390.367188 770.628906 380.894531 769.96875 381.933594 C 769.257812 383.054688 768.40625 378.433594 767.84375 370.421875 C 764.230469 319.066406 742.976562 256.441406 713.683594 210.855469 C 708.25 202.40625 706.933594 201.707031 700.832031 204.023438 C 698.859375 204.773438 684.148438 206.496094 668.132812 207.851562 L 639.019531 210.320312 L 631.371094 222.382812 C 628.5625 226.824219 625.742188 231.253906 622.910156 235.679688 C 620.539062 239.277344 609.113281 231.730469 587.589844 212.351562 L 564.960938 191.976562 L 560.558594 178.441406 C 551.332031 150.058594 549.667969 147.234375 533.863281 133.070312 L 519.523438 120.222656 L 504.222656 117.273438 C 483.570312 113.285156 484.792969 113.007812 484.792969 121.703125 M 101.582031 218.296875 C 89.136719 221.351562 89.824219 220.585938 77.992188 244.699219 C -45.644531 496.695312 159.542969 798.398438 434.1875 768.441406 C 453.1875 766.367188 451.140625 769.761719 449.066406 743.777344 L 447.308594 721.800781 L 455.671875 688.160156 L 464.03125 654.519531 L 455.796875 625.585938 C 448.058594 598.390625 446.753906 595.132812 434.085938 571.503906 L 420.609375 546.363281 L 432.765625 521.050781 C 439.449219 507.128906 444.753906 495.601562 444.550781 495.4375 C 444.347656 495.273438 439.054688 493.675781 432.785156 491.894531 C 421.679688 488.730469 421.015625 488.285156 407.136719 474.632812 L 392.886719 460.621094 L 362.664062 453.828125 L 332.445312 447.035156 L 322.515625 426.371094 L 312.585938 405.710938 L 312.484375 417.46875 L 312.378906 429.222656 L 307.652344 429.222656 C 303.125 429.222656 301.8125 427.71875 277.015625 394.117188 L 251.109375 359.007812 L 251.109375 300.730469 L 233.113281 271.289062 C 223.214844 255.097656 214.398438 241.09375 213.519531 240.179688 C 212.304688 238.902344 204.632812 239.832031 181.289062 244.074219 C 155.410156 248.777344 147.609375 249.648438 131.042969 249.664062 L 111.433594 249.683594 L 101.476562 243.0625 C 89.480469 235.085938 89.523438 236.300781 100.9375 227.597656 C 119.382812 213.535156 119.351562 213.9375 101.582031 218.296875 " fill-opacity="1" fill-rule="evenodd"/></g></svg>